<svg width="25" height="28" viewBox="0 0 25 28" fill="none" xmlns="http://www.w3.org/2000/svg">
<path d="M4.23216 21.7778C3.69744 21.7778 3.23969 21.5874 2.8589 21.2066C2.47811 20.8258 2.28772 20.368 2.28772 19.8333V8.16666C2.28772 7.63194 2.47811 7.17418 2.8589 6.7934C3.23969 6.41261 3.69744 6.22222 4.23216 6.22222H10.0655L12.0099 8.16666H19.7877C20.3224 8.16666 20.7802 8.35705 21.161 8.73784C21.5418 9.11863 21.7322 9.57638 21.7322 10.1111H11.2079L9.26341 8.16666H4.23216V19.8333L6.5655 12.0555H23.1905L20.687 20.3924C20.5574 20.8137 20.3184 21.1499 19.97 21.401C19.6216 21.6522 19.2368 21.7778 18.8155 21.7778H4.23216ZM6.27383 19.8333H18.8155L20.5655 14H8.02383L6.27383 19.8333Z" fill="white"/>
</svg>
