<svg width="25" height="28" viewBox="0 0 25 28" fill="none" xmlns="http://www.w3.org/2000/svg">
<path d="M5.20439 23.7222C4.66966 23.7222 4.21191 23.5318 3.83112 23.151C3.45034 22.7703 3.25994 22.3125 3.25994 21.7778V10.816C2.96828 10.6377 2.73332 10.4068 2.55508 10.1233C2.37684 9.83971 2.28772 9.51158 2.28772 9.1389V6.22223C2.28772 5.68751 2.47811 5.22975 2.8589 4.84896C3.23969 4.46818 3.69744 4.27778 4.23216 4.27778H19.7877C20.3224 4.27778 20.7802 4.46818 21.161 4.84896C21.5418 5.22975 21.7322 5.68751 21.7322 6.22223V9.1389C21.7322 9.51158 21.643 9.83971 21.4648 10.1233C21.2866 10.4068 21.0516 10.6377 20.7599 10.816V21.7778C20.7599 22.3125 20.5695 22.7703 20.1888 23.151C19.808 23.5318 19.3502 23.7222 18.8155 23.7222H5.20439ZM5.20439 11.0833V21.7778H18.8155V11.0833H5.20439ZM4.23216 9.1389H19.7877V6.22223H4.23216V9.1389ZM9.09328 15.9445H14.9266V14H9.09328V15.9445Z" fill="white"/>
</svg>
