<svg width="25" height="28" viewBox="0 0 25 28" fill="none" xmlns="http://www.w3.org/2000/svg">
<path d="M12.0221 23.7222C12.0221 23.7222 11.6879 23.7222 11.0195 23.7222C10.3511 23.7222 9.42545 23.467 8.24258 22.9566C7.05971 22.4462 6.02672 21.7494 5.14362 20.8663C4.26052 19.9832 3.56376 18.9502 3.05334 17.7674C2.54293 16.5845 2.28772 15.3247 2.28772 13.9879C2.28772 12.651 2.54293 11.3953 3.05334 10.2205C3.56376 9.04572 4.26052 8.01679 5.14362 7.13369C6.02672 6.25059 7.05971 5.55383 8.24258 5.04341C9.42545 4.53299 10.6853 4.27778 12.0221 4.27778C13.3589 4.27778 14.6147 4.53299 15.7895 5.04341C16.9642 5.55383 17.9932 6.25059 18.8763 7.13369C19.7594 8.01679 20.4561 9.04572 20.9665 10.2205C21.477 11.3953 21.7322 12.651 21.7322 13.9879C21.7322 15.3247 21.477 16.5845 20.9665 17.7674C20.4561 18.9502 19.7594 19.9832 18.8763 20.8663C17.9932 21.7494 16.9642 22.4462 15.7895 22.9566C14.6147 23.467 13.3589 23.7222 12.0221 23.7222ZM12.0099 21.7292C12.4312 21.1458 12.7958 20.5382 13.1037 19.9063C13.4116 19.2743 13.6627 18.6019 13.8572 17.8889H10.1627C10.3572 18.6019 10.6083 19.2743 10.9162 19.9063C11.2241 20.5382 11.5886 21.1458 12.0099 21.7292ZM9.48216 21.3403C9.1905 20.8056 8.93529 20.2506 8.71654 19.6754C8.49779 19.1001 8.3155 18.5046 8.16966 17.8889H5.30161C5.77152 18.6991 6.3589 19.4039 7.06376 20.0035C7.76862 20.603 8.57476 21.0486 9.48216 21.3403ZM14.5377 21.3403C15.4451 21.0486 16.2513 20.603 16.9561 20.0035C17.661 19.4039 18.2484 18.6991 18.7183 17.8889H15.8502C15.7044 18.5046 15.5221 19.1001 15.3033 19.6754C15.0846 20.2506 14.8294 20.8056 14.5377 21.3403ZM4.47522 15.9445H7.78078C7.73216 15.6204 7.69571 15.3004 7.6714 14.9844C7.64709 14.6684 7.63494 14.3403 7.63494 14C7.63494 13.6597 7.64709 13.3316 7.6714 13.0156C7.69571 12.6997 7.73216 12.3796 7.78078 12.0556H4.47522C4.3942 12.3796 4.33344 12.6997 4.29293 13.0156C4.25242 13.3316 4.23216 13.6597 4.23216 14C4.23216 14.3403 4.25242 14.6684 4.29293 14.9844C4.33344 15.3004 4.3942 15.6204 4.47522 15.9445ZM9.72522 15.9445H14.2947C14.3433 15.6204 14.3797 15.3004 14.404 14.9844C14.4283 14.6684 14.4405 14.3403 14.4405 14C14.4405 13.6597 14.4283 13.3316 14.404 13.0156C14.3797 12.6997 14.3433 12.3796 14.2947 12.0556H9.72522C9.67661 12.3796 9.64015 12.6997 9.61584 13.0156C9.59154 13.3316 9.57939 13.6597 9.57939 14C9.57939 14.3403 9.59154 14.6684 9.61584 14.9844C9.64015 15.3004 9.67661 15.6204 9.72522 15.9445ZM16.2391 15.9445H19.5447C19.6257 15.6204 19.6864 15.3004 19.727 14.9844C19.7675 14.6684 19.7877 14.3403 19.7877 14C19.7877 13.6597 19.7675 13.3316 19.727 13.0156C19.6864 12.6997 19.6257 12.3796 19.5447 12.0556H16.2391C16.2877 12.3796 16.3242 12.6997 16.3485 13.0156C16.3728 13.3316 16.3849 13.6597 16.3849 14C16.3849 14.3403 16.3728 14.6684 16.3485 14.9844C16.3242 15.3004 16.2877 15.6204 16.2391 15.9445ZM15.8502 10.1111H18.7183C18.2484 9.30093 17.661 8.59607 16.9561 7.99653C16.2513 7.397 15.4451 6.9514 14.5377 6.65973C14.8294 7.19445 15.0846 7.74943 15.3033 8.32466C15.5221 8.89989 15.7044 9.49538 15.8502 10.1111ZM10.1627 10.1111H13.8572C13.6627 9.39815 13.4116 8.7257 13.1037 8.09376C12.7958 7.46181 12.4312 6.85417 12.0099 6.27084C11.5886 6.85417 11.2241 7.46181 10.9162 8.09376C10.6083 8.7257 10.3572 9.39815 10.1627 10.1111ZM5.30161 10.1111H8.16966C8.3155 9.49538 8.49779 8.89989 8.71654 8.32466C8.93529 7.74943 9.1905 7.19445 9.48216 6.65973C8.57476 6.9514 7.76862 7.397 7.06376 7.99653C6.3589 8.59607 5.77152 9.30093 5.30161 10.1111Z" fill="white"/>
</svg>
